<svg width="47" height="24" viewBox="0 0 47 24" fill="none" xmlns="http://www.w3.org/2000/svg">
<path d="M0.117553 1.5114C0.0618951 0.795794 0.755922 0.256325 1.43567 0.486821L15.1667 5.14286L23.4799 7.86858C24.5082 8.20575 24.3427 9.70863 23.2657 9.81405L1.94863 11.9006C1.3912 11.9552 0.897659 11.5413 0.854227 10.9829L0.117553 1.5114Z" fill="#7D0D13"/>
<path d="M46.8856 1.52572C46.9395 0.806334 46.2372 0.26824 45.5566 0.507556L32.375 5.14286L24.3468 7.87265C23.3298 8.21845 23.499 9.70582 24.5677 9.8143L45.0786 11.8963C45.6383 11.9531 46.1347 11.5372 46.1768 10.9762L46.8856 1.52572Z" fill="#7D0D13"/>
<path d="M9.44676 21.5869C8.53749 21.5869 8.2822 20.6669 9.02826 20.0787L14.5833 15.699L22.2595 9.76716C23.1124 9.10805 24.2571 9.59538 23.9222 10.475L19.9999 20.7781C19.8246 21.2386 19.2841 21.5869 18.7449 21.5869L9.44676 21.5869Z" fill="#7D0D13"/>
<path d="M37.0358 21.1138C37.8341 20.9941 37.9948 20.0666 37.3137 19.5103L33.3503 16.2727L25.4241 9.93298C24.6298 9.29764 23.5622 9.79094 23.8084 10.6796L26.8274 21.5768C26.9806 22.13 27.6012 22.5283 28.1756 22.4422L37.0358 21.1138Z" fill="#7D0D13"/>
</svg>
