<svg width="1444" height="174" viewBox="0 0 1444 174" fill="none" xmlns="http://www.w3.org/2000/svg">
<path fill-rule="evenodd" clip-rule="evenodd" d="M1444 116.743L1383.83 120.833C1323.67 124.923 1203.33 133.102 1083 137.192C962.667 141.282 842.333 141.282 722 135.829C601.667 130.376 481.333 119.47 361 116.743C240.667 114.017 120.333 119.47 60.1666 122.196L0 124.923V174H60.1666C120.333 174 240.667 174 361 174C481.333 174 601.667 174 722 174C842.333 174 962.667 174 1083 174C1203.33 174 1323.67 174 1383.83 174H1444V116.743Z" fill="white"/>
<path d="M132.096 8.56875C133.948 4.9657 139.091 4.94555 140.971 8.53399L152.93 31.358C153.145 31.7677 153.415 32.1457 153.734 32.4812L174.461 54.2991C177.641 57.6469 174.972 63.148 170.374 62.7215L135.723 59.507C135.41 59.478 135.095 59.4785 134.783 59.5086L102.26 62.6346C97.6107 63.0815 94.9419 57.4758 98.2199 54.1485L119.528 32.5197C119.884 32.159 120.182 31.7466 120.413 31.2964L132.096 8.56875Z" fill="white"/>
<path d="M132.376 34.9728C134.376 32.296 138.388 32.296 140.388 34.9728L182.517 91.3683C184.98 94.6656 182.627 99.3607 178.512 99.3607H94.2525C90.1366 99.3607 87.7835 94.6656 90.2468 91.3683L132.376 34.9728Z" fill="white"/>
<path d="M132.442 61.6349C134.443 59.0791 138.312 59.0791 140.314 61.6349L189.968 125.026C192.539 128.308 190.201 133.11 186.032 133.11H86.7238C82.5551 133.11 80.217 128.308 82.7876 125.026L132.442 61.6349Z" fill="white"/>
<path d="M1272.83 49.2831C1270.98 45.6801 1265.84 45.6599 1263.96 49.2483L1256.85 62.804C1256.64 63.2138 1256.37 63.5918 1256.05 63.9272L1244.13 76.4769C1240.95 79.8247 1243.62 85.3258 1248.21 84.8993L1268.84 82.9857C1269.16 82.9566 1269.47 82.9572 1269.78 82.9872L1288.77 84.8124C1293.42 85.2593 1296.09 79.6536 1292.81 76.3263L1280.63 63.9657C1280.28 63.6051 1279.98 63.1927 1279.75 62.7425L1272.83 49.2831Z" fill="white"/>
<path d="M1272.52 67.1044C1270.52 64.4276 1266.5 64.4275 1264.51 67.1043L1237.48 103.283C1235.02 106.58 1237.37 111.275 1241.48 111.275H1295.54C1299.65 111.275 1302.01 106.58 1299.54 103.283L1272.52 67.1044Z" fill="white"/>
<path d="M1272.45 85.9407C1270.45 83.385 1266.58 83.385 1264.58 85.9407L1232.29 127.158C1229.72 130.44 1232.06 135.242 1236.23 135.242H1300.8C1304.97 135.242 1307.31 130.44 1304.74 127.158L1272.45 85.9407Z" fill="white"/>
<path d="M223.306 50.5688C225.158 46.9657 230.302 46.9456 232.182 50.534L238.313 62.236C238.528 62.6458 238.798 63.0238 239.117 63.3592L249.278 74.0552C252.459 77.4029 249.789 82.9041 245.191 82.4776L227.367 80.8241C227.054 80.7951 226.739 80.7956 226.427 80.8257L210.144 82.3907C205.495 82.8376 202.826 77.2319 206.104 73.9046L216.455 63.3977C216.811 63.0371 217.109 62.6246 217.341 62.1744L223.306 50.5688Z" fill="white"/>
<path d="M223.627 66.6734C225.627 63.9966 229.639 63.9966 231.639 66.6734L255.645 98.808C258.108 102.105 255.755 106.8 251.639 106.8H203.627C199.512 106.8 197.158 102.105 199.622 98.808L223.627 66.6734Z" fill="white"/>
<path d="M223.694 83.9445C225.696 81.3888 229.565 81.3888 231.567 83.9445L260.379 120.727C262.949 124.009 260.611 128.811 256.442 128.811H198.819C194.65 128.811 192.312 124.009 194.883 120.727L223.694 83.9445Z" fill="white"/>
<path d="M1210.88 83.6956C1209.76 81.5337 1206.68 81.5217 1205.55 83.6747L1200.67 92.9866C1200.54 93.2325 1200.38 93.4593 1200.19 93.6605L1191.92 102.369C1190.01 104.377 1191.61 107.678 1194.37 107.422L1208.53 106.109C1208.72 106.091 1208.91 106.092 1209.09 106.11L1222.21 107.37C1225 107.638 1226.6 104.275 1224.63 102.278L1216.16 93.6836C1215.95 93.4672 1215.77 93.2198 1215.63 92.9496L1210.88 83.6956Z" fill="white"/>
<path d="M1210.69 95.4796C1209.49 93.8735 1207.08 93.8735 1205.88 95.4796L1187.75 119.757C1186.27 121.736 1187.68 124.553 1190.15 124.553H1226.42C1228.89 124.553 1230.31 121.736 1228.83 119.757L1210.69 95.4796Z" fill="white"/>
<path d="M1210.65 107.776C1209.45 106.243 1207.13 106.243 1205.93 107.776L1184.35 135.326C1182.81 137.295 1184.21 140.176 1186.71 140.176H1229.87C1232.37 140.176 1233.77 137.295 1232.23 135.326L1210.65 107.776Z" fill="white"/>
</svg>
